<?xml version="1.0" encoding="utf-8"?>
<!-- Generator: Adobe Illustrator 24.0.3, SVG Export Plug-In . SVG Version: 6.00 Build 0)  -->
<svg version="1.1" id="Layer_1" xmlns="http://www.w3.org/2000/svg" xmlns:xlink="http://www.w3.org/1999/xlink" x="0px" y="0px"
	 viewBox="0 0 512 512" style="enable-background:new 0 0 512 512;" xml:space="preserve">
<title></title>
<path d="M255,287c9.5-0.1,18.7,3.1,26.1,9.2c0.7,0,0.7-0.7,1.6-0.7L392.9,257c9.8-3.4,20.4,1.8,23.8,11.5
	c3.4,9.8-1.8,20.4-11.5,23.8l-108.8,38.3c-1.5,21.8-19.5,38.9-41.4,39.1c-22.9,0-41.4-18.5-41.4-41.4S232.1,286.9,255,287L255,287
	L255,287z"/>
<path d="M-0.4,328.3c0,33.8,6.8,67.2,19.9,98.3l5.4,12.3h461.8l5.4-12.3c53.9-130.7-8.3-280.3-139-334.2s-280.3,8.3-334.2,139
	C6.3,262.2-0.3,295.1-0.4,328.3L-0.4,328.3z M39.5,328.3c-0.1-55.8,21.7-109.5,60.6-149.5l29.2,31.5c3.7,4.2,9,6.4,14.6,6.1
	c5.1,0.1,10.1-1.9,13.8-5.4c8.1-7.5,8.8-20,1.6-28.4l-28.4-30.7c31-22.1,67.3-35.5,105.1-39.1v44.5c0,11,8.9,20,20,20
	c11,0,20-8.9,20-20v-44.5c37.8,3.7,74,17.2,105.1,39.1l-28.4,30.6c-7.4,8-6.9,20.5,1.1,27.9c0.2,0.2,0.3,0.3,0.5,0.4
	c3.6,3.6,8.6,5.6,13.8,5.4c5.5-0.1,10.7-2.3,14.6-6.1l29.2-31.5c38.9,40.1,60.6,93.7,60.6,149.5c0.2,24.1-3.9,48-12.3,70.6H52.5
	C43.6,376.4,39.2,352.5,39.5,328.3L39.5,328.3z"/>
</svg>
