<?xml version="1.0" encoding="utf-8"?>
<!-- Generator: Adobe Illustrator 24.0.3, SVG Export Plug-In . SVG Version: 6.00 Build 0)  -->
<svg version="1.1" id="Layer_1" xmlns="http://www.w3.org/2000/svg" xmlns:xlink="http://www.w3.org/1999/xlink" x="0px" y="0px"
	 viewBox="0 0 512 512" style="enable-background:new 0 0 512 512;" xml:space="preserve">
<title></title>
<path d="M1.6,387.7c1.5-2.5,4-2.6,7.4-0.5c77.5,44.9,161.8,67.4,252.9,67.4c60.7,0,120.7-11.3,179.9-33.9c1.5-0.6,3.8-1.5,6.7-2.8
	c2.9-1.2,5-2.2,6.3-2.8c4.6-1.9,8.3-0.9,10.9,2.8s1.8,7.1-2.6,10.2c-5.6,4-12.7,8.7-21.4,13.9c-26.7,15.8-56.4,28-89.3,36.7
	s-64.9,13-96.2,13c-48.3,0-94.1-8.4-137.1-25.3C76,449.5,37.4,425.7,3.3,395c-1.9-1.5-2.8-3.1-2.8-4.6C0.7,389.6,1,388.7,1.6,387.7
	L1.6,387.7z M141.5,255.2c0-21.4,5.3-39.7,15.8-54.9s24.9-26.7,43.2-34.4c16.7-7.1,37.3-12.2,61.8-15.3c8.4-0.9,22-2.2,40.9-3.7V139
	c0-19.8-2.2-33.2-6.5-40c-6.5-9.3-16.7-13.9-30.7-13.9h-3.7c-10.2,0.9-19.1,4.2-26.5,9.8s-12.2,13.3-14.4,23.2
	c-1.2,6.2-4.3,9.8-9.3,10.7l-53.5-6.5c-5.3-1.2-7.9-4-7.9-8.4c0-0.9,0.2-2,0.5-3.3c5.3-27.6,18.2-48,38.8-61.4
	C210.7,36,234.8,28.5,262.4,27H274c35.3,0,62.9,9.1,82.7,27.4c3.1,3.1,6,6.5,8.6,10c2.6,3.6,4.7,6.7,6.3,9.5
	c1.5,2.8,2.9,6.8,4.2,12.1c1.2,5.3,2.2,8.9,2.8,10.9s1.1,6.4,1.4,13c0.3,6.7,0.5,10.6,0.5,11.9v112.5c0,8.1,1.2,15.4,3.5,22.1
	s4.6,11.5,6.7,14.4c2.2,2.9,5.7,7.7,10.7,14.2c1.9,2.8,2.8,5.3,2.8,7.4c0,2.5-1.2,4.6-3.7,6.5c-25.7,22.3-39.7,34.4-41.8,36.3
	c-3.7,2.8-8.2,3.1-13.5,0.9c-4.3-3.7-8.1-7.3-11.4-10.7s-5.6-5.9-7-7.4s-3.6-4.6-6.7-9.1s-5.3-7.5-6.5-9.1
	c-17.4,18.9-34.4,30.7-51.1,35.3c-10.5,3.1-23.6,4.6-39,4.6c-23.9,0-43.5-7.4-58.8-22.1C149.2,303.1,141.5,282.2,141.5,255.2
	L141.5,255.2z M221.5,246c0,12.1,3,21.8,9.1,29.1c6,7.3,14.2,10.9,24.4,10.9c0.9,0,2.2-0.2,4-0.5c1.7-0.3,2.9-0.5,3.5-0.5
	c13-3.4,23.1-11.8,30.2-25.1c3.4-5.9,6-12.3,7.7-19.3s2.6-12.6,2.8-17c0.2-4.3,0.2-11.5,0.2-21.4v-11.6c-18,0-31.6,1.2-40.9,3.7
	C235.1,202.1,221.5,219.3,221.5,246L221.5,246z M416.7,395.6c0.6-1.2,1.5-2.5,2.8-3.7c7.7-5.3,15.2-8.8,22.3-10.7
	c11.8-3.1,23.2-4.8,34.4-5.1c2.8,0.1,6.8,0.1,8.8,0.5c13.9,1.2,22.3,3.6,25.1,7c1.2,1.9,1.9,4.6,1.9,8.4v3.3
	c0,10.8-2.9,23.6-8.8,38.4c-5.9,14.7-14.1,26.6-24.6,35.6c-1.5,1.2-2.9,1.9-4.2,1.9c-0.6,0-1.2-0.2-1.9-0.5
	c-1.9-0.9-2.3-2.6-1.4-5.1c11.5-27,17.2-45.7,17.2-56.2c0-3.4-0.6-5.9-1.9-7.4c-3.1-3.7-11.8-5.6-26-5.6c-5.3,0-11.5,0.3-18.6,0.9
	c-7.7,0.9-14.9,1.9-21.4,2.8c-1.9,0-3.1-0.3-3.7-0.9s-0.8-1.2-0.5-1.9C416.2,396.7,416.4,396.3,416.7,395.6L416.7,395.6z"/>
</svg>
