<?xml version="1.0" encoding="utf-8"?>
<!-- Generator: Adobe Illustrator 24.0.3, SVG Export Plug-In . SVG Version: 6.00 Build 0)  -->
<svg version="1.1" id="Layer_1" xmlns="http://www.w3.org/2000/svg" xmlns:xlink="http://www.w3.org/1999/xlink" x="0px" y="0px"
	 viewBox="0 0 512 512" style="enable-background:new 0 0 512 512;" xml:space="preserve">
<title></title>
<path d="M488.4,347.7L435,255.2c-3.3-5.7-11.4-5.7-14.7,0l-53.4,92.5c-3.3,5.7,0.8,12.7,7.3,12.7h18
	c-19.3,43.3-58.6,75.8-106.1,85.6V198.7h56.2V138h-69c29.9-7.8,52.1-35.1,52.1-67.4c0-38.4-31.2-69.6-69.6-69.6
	s-69.6,31.2-69.6,69.6c0,32.3,22.2,59.6,52.1,67.4h-69v60.6h56.2V446c-47.5-9.8-86.8-42.3-106.1-85.6h18c6.5,0,10.6-7.1,7.3-12.7
	l-53.4-92.5c-3.3-5.7-11.4-5.7-14.7,0l-53.4,92.5c-3.3,5.7,0.8,12.7,7.3,12.7h21.8C78.5,448,159.8,512,255.8,512
	s177.3-64,203.4-151.6H481C487.6,360.4,491.6,353.3,488.4,347.7L488.4,347.7z M255.8,45.9c13.6,0,24.7,11.1,24.7,24.7
	s-11.1,24.7-24.7,24.7c-13.6,0-24.7-11.1-24.7-24.7S242.2,45.9,255.8,45.9z"/>
</svg>
