<?xml version="1.0" encoding="utf-8"?>
<!-- Generator: Adobe Illustrator 24.0.3, SVG Export Plug-In . SVG Version: 6.00 Build 0)  -->
<svg version="1.1" id="Layer_1" xmlns="http://www.w3.org/2000/svg" xmlns:xlink="http://www.w3.org/1999/xlink" x="0px" y="0px"
	 viewBox="0 0 512 512" style="enable-background:new 0 0 512 512;" xml:space="preserve">
<title></title>
<path d="M502.8,261c-0.7-6.1-3.3-12.2-8.1-17.5L279.5,10.2c-12.5-13.5-33.8-13.5-46.3,0L18.1,243.5c-4.8,5.2-7.4,11.3-8.1,17.5
	c-1.6,3.5-2.5,7.3-2.5,11.4v212.2c0,15.1,12.3,27.4,27.4,27.4H478c15.1,0,27.4-12.3,27.4-27.4V272.4
	C505.4,268.3,504.4,264.5,502.8,261L502.8,261z M304.5,114.8c20.7,0,37.4,16.7,37.4,37.4s-16.7,37.4-37.4,37.4
	c-20.7,0-37.4-16.7-37.4-37.4S283.8,114.8,304.5,114.8z M133.4,157.6c20.7,0,37.4,16.7,37.4,37.4s-16.7,37.4-37.4,37.4
	S96,215.7,96,195S112.7,157.6,133.4,157.6z M245.7,392.9h-64.2c-21.4,0-32.1-21.4-32.1-21.4l-32.1,85.6c-7.6,20.3-41,13-32.1-10.7
	l32.1-85.6c8-21.4,0-74.9-21.4-74.9l-38.8,38.8c-9.1,9.1-25.4,4-25.4-6.7c0-7.6,2.2-12.9,8-18.7l45.5-45.5
	c5.6-5.6,10.7-10.7,21.4-10.7h32.1c21.4,0,42.8,42.8,42.8,85.6c0,10.7,0,32.1,10.7,32.1h53.5C267.1,360.8,267.1,392.9,245.7,392.9
	L245.7,392.9z M465,414.3c-14.3,0-33.1,0-58.8,0c-42.8,0-53.5-64.2-53.5-64.2l-58.2,137.7c-3.3,7.9-9.9,11.9-16.7,12
	c-10.4,0.1-20.7-8.4-15.4-22.7l46.8-124.3c0-0.8,0.3-1.7,0.7-2.7c11.3-30-18.7-94.3-18.7-94.3L245.7,286c-17.6,11.6-34.9-12-16-25.4
	l69.5-49.5c11-7.8,24.1-10.7,32.1-10.7l0,0c10.7,0,21.4,0,21.4,0c15,0,19.2,1.5,32.1,10.7l70.9,50.8c18.8,14.1,2,37-17.4,24.1
	l-64.2-42.8c0,0,21.4,53.5,21.4,85.6c0,19.2-1.4,53.5,21.4,53.5c10.7,0,37.4,0,48.1,0c16,0,16,16,16,16S481,414.3,465,414.3
	L465,414.3z"/>
</svg>
