<?xml version="1.0" encoding="utf-8"?>
<!-- Generator: Adobe Illustrator 24.0.3, SVG Export Plug-In . SVG Version: 6.00 Build 0)  -->
<svg version="1.1" id="Layer_1" xmlns="http://www.w3.org/2000/svg" xmlns:xlink="http://www.w3.org/1999/xlink" x="0px" y="0px"
	 viewBox="0 0 512 512" style="enable-background:new 0 0 512 512;" xml:space="preserve">
<title></title>
<path d="M450.1,121.4C449.2,59.2,409.9,8.8,360.6,5.5V5.3H231.5c51.7,0,93.7,51.8,94.6,116.1l0,0V441H411v71h39v-71
	C450,441,450.1,121.4,450.1,121.4z"/>
<path d="M299.2,117.1C298,52.8,245.6,1,181,1c-1.7,0-3.4,0.1-5,0.1c-62.3,2.6-112.1,53.3-113.2,116h-0.1V507h48.7v-70.2h139.2v71
	h48.7v-87.5L299.2,117.1L299.2,117.1z M246.9,188.8H115v-44.4h131.9V188.8L246.9,188.8z"/>
</svg>
