<?xml version="1.0" encoding="utf-8"?>
<!-- Generator: Adobe Illustrator 24.0.3, SVG Export Plug-In . SVG Version: 6.00 Build 0)  -->
<svg version="1.1" id="Layer_1" xmlns="http://www.w3.org/2000/svg" xmlns:xlink="http://www.w3.org/1999/xlink" x="0px" y="0px"
	 viewBox="0 0 512 512" style="enable-background:new 0 0 512 512;" xml:space="preserve">
<title></title>
<path d="M256.1,287c-9.5-0.1-18.7,3.1-26.1,9.2c-0.7,0-0.7-0.7-1.6-0.7L118.2,257c-9.8-3.4-20.4,1.8-23.8,11.5
	c-3.4,9.8,1.8,20.4,11.5,23.8l108.8,38.3c1.5,21.8,19.5,38.9,41.4,39.1c22.9,0,41.4-18.5,41.4-41.4S278.9,286.9,256.1,287L256.1,287
	z"/>
<path d="M492.2,231.5C438.3,100.8,288.6,38.6,158,92.5S-34.9,296,19,426.7l5.4,12.3h461.8l5.4-12.3c13.2-31.1,19.9-64.6,19.9-98.3
	C511.4,295.1,504.8,262.2,492.2,231.5L492.2,231.5z M458.6,398.8H51.3c-8.4-22.6-12.5-46.5-12.3-70.6
	c-0.1-55.8,21.7-109.5,60.6-149.5l29.2,31.5c3.9,3.9,9.1,6.1,14.6,6.1c5.1,0.2,10.1-1.8,13.8-5.4c0.2-0.1,0.3-0.3,0.5-0.4
	c8-7.4,8.5-19.9,1.1-27.9L130.4,152c31-21.9,67.2-35.4,105.1-39.1v44.5c0,11,8.9,20,20,20c11,0,20-8.9,20-20v-44.5
	c37.9,3.5,74.1,17,105.1,39.1l-28.4,30.7c-7.2,8.3-6.5,20.9,1.6,28.4c3.7,3.5,8.6,5.5,13.8,5.4c5.5,0.3,10.9-2,14.6-6.1l29.2-31.5
	C450.3,219,472,272.6,472,328.4C471.9,352.5,467.5,376.4,458.6,398.8L458.6,398.8z"/>
</svg>
