<?xml version="1.0" encoding="utf-8"?>
<!-- Generator: Adobe Illustrator 24.0.3, SVG Export Plug-In . SVG Version: 6.00 Build 0)  -->
<svg version="1.1" id="Layer_1" xmlns="http://www.w3.org/2000/svg" xmlns:xlink="http://www.w3.org/1999/xlink" x="0px" y="0px"
	 viewBox="0 0 512 512" style="enable-background:new 0 0 512 512;" xml:space="preserve">
<title></title>
<path d="M341.8,459.2V224.5h16c8.8,0,16,7.2,16,16v149.3c0,38.3,31,69.4,69.4,69.4s69.4-31,69.4-69.4V102.7c0-15-6.2-28.5-16.1-38.3
	L439.9,8.2c-10.2-10.2-26.8-10.2-37,0s-10.2,26.8,0,37l36.7,36.7l-27.1,28.3c-8.8,9-8.8,23.7,0,32.8c4.3,4.7,10.2,6.9,16.1,6.8
	l30.6-0.1v240.1c0,8.8-7.2,16-16,16s-16-7.2-16-16V240.5c0-38.3-31-69.4-69.4-69.4h-16v-128c0-23.6-19.1-42.6-42.6-42.6H75.1
	c-23.6,0-42.6,19.1-42.6,42.6v416h-5.3c-14.7,0-26.7,12-26.7,26.7s12,26.7,26.7,26.7h320c14.7,0,26.7-12,26.7-26.7
	s-12-26.7-26.7-26.7L341.8,459.2L341.8,459.2z M109.3,53.9H265c13,0,23.5,10.4,23.5,23.5v113.1c0,13-10.4,23.5-23.5,23.5H109.3
	c-13,0-23.5-10.4-23.5-23.5V77.4C85.8,64.3,96.2,53.9,109.3,53.9z"/>
</svg>
