<?xml version="1.0" encoding="utf-8"?>
<!-- Generator: Adobe Illustrator 24.0.3, SVG Export Plug-In . SVG Version: 6.00 Build 0)  -->
<svg version="1.1" id="Layer_1" xmlns="http://www.w3.org/2000/svg" xmlns:xlink="http://www.w3.org/1999/xlink" x="0px" y="0px"
	 viewBox="0 0 512 512" style="enable-background:new 0 0 512 512;" xml:space="preserve">
<title></title>
<path d="M494.7,65.7H378.8c-0.6-0.1-1.2-0.1-1.8-0.1H186.1V18.1c0-13.4-14.5-21.7-26-15L8.3,90.7c-11.6,6.7-11.6,23.4,0,30
	l151.8,87.6c11.6,6.7,26-1.7,26-15v-47.5H377c0.8,0,1.6-0.1,2.3-0.2h52.4V495c0,8.3,7.8,15.1,17.3,15.1h45.5
	c9.6,0,17.3-6.7,17.3-15.1V80.8C512,72.5,504.2,65.7,494.7,65.7L494.7,65.7z"/>
</svg>
