<?xml version="1.0" encoding="utf-8"?>
<!-- Generator: Adobe Illustrator 24.0.3, SVG Export Plug-In . SVG Version: 6.00 Build 0)  -->
<svg version="1.1" id="Layer_1" xmlns="http://www.w3.org/2000/svg" xmlns:xlink="http://www.w3.org/1999/xlink" x="0px" y="0px"
	 viewBox="0 0 512 512" style="enable-background:new 0 0 512 512;" xml:space="preserve">
<title></title>
<path d="M116,375.5c-29.1,0-52.6,23.6-52.6,52.6S87,480.7,116,480.7c29.1,0,52.6-23.6,52.6-52.6S145,375.5,116,375.5z"/>
<path d="M409.8,375.5c-29.1,0-52.6,23.6-52.6,52.6s23.6,52.6,52.6,52.6c29.1,0,52.6-23.6,52.6-52.6S438.8,375.5,409.8,375.5z"/>
<path d="M500.6,356.5v-53.1c0-2.5-0.9-5-2.5-6.9l-1.8-2.1v0.2l-7.2-8.7h0.1l-9-10.9h-0.1l-7.2-8.7h0.1L420.1,202L375.7,42.1
	c-1.3-4.7-5.6-8-10.5-8H246.4v-0.5H45.5c-5.7,0-10.4,4.3-10.8,10L33,64.8c0.2,0,0.3,0.1,0.5,0.1L30.3,103h-0.4l-9.8,121.1
	c0.1-0.1,0.2-0.1,0.3-0.2l-1.2,14.7c-0.1,0-0.2,0.1-0.3,0.1l-2.2,27.4H17l-0.7,8.7H16l-0.9,10.9h0.2l-0.7,8.7h-0.2l-5,62.3
	c-5,1-8.7,5.4-8.7,10.6v37.3c0,6.1,4.9,11,11,11h40.5c5.8-29.9,32.1-52.5,63.8-52.5s57.9,22.6,63.8,52.5H346
	c5.8-29.9,32.1-52.5,63.8-52.5c31.6,0,57.9,22.6,63.8,52.5h27.1c6.1,0,11-4.9,11-11v-37.3C511.6,361.4,506.7,356.5,500.6,356.5
	L500.6,356.5z M397.6,209.5c0,6.9-5.6,12.5-12.5,12.5H231.2v68.1c0,9.6-10.4,15.7-18.8,10.9L44.3,203.9c-8.4-4.8-8.4-16.9,0-21.7
	l168.1-97.1c8.4-4.8,18.8,1.2,18.8,10.9v68.1H385c6.9,0,12.5,5.6,12.5,12.5v32.9H397.6z"/>
</svg>
