<?xml version="1.0" encoding="utf-8"?>
<!-- Generator: Adobe Illustrator 24.0.3, SVG Export Plug-In . SVG Version: 6.00 Build 0)  -->
<svg version="1.1" id="Layer_1" xmlns="http://www.w3.org/2000/svg" xmlns:xlink="http://www.w3.org/1999/xlink" x="0px" y="0px"
	 viewBox="0 0 512 512" style="enable-background:new 0 0 512 512;" xml:space="preserve">
<title></title>
<path d="M425.2,219.7c-2.7-0.5-8.1-0.8-16.3-0.8H398v31.8h12.4c8.9,0,14.9-0.6,17.9-1.8s5.4-3,7.1-5.5s2.6-5.4,2.6-8.7
	c0-4.1-1.2-7.4-3.6-10.1C431.9,222.1,428.9,220.4,425.2,219.7z"/>
<path d="M512,150L361.9,0H149.7l-150,150v212.2l150.1,150.1H362l150-150.1V150L512,150z M136.3,297.5c-3.6,5.6-8.6,9.8-15.1,12.5
	s-14.7,4.1-24.4,4.1c-14.2,0-25.1-3.3-32.7-9.8c-7.6-6.6-12.1-16.1-13.6-28.6l22-2.1c1.3,7.4,4,12.8,8.1,16.3s9.5,5.2,16.4,5.2
	c7.3,0,12.8-1.5,16.5-4.6s5.5-6.7,5.5-10.8c0-2.6-0.8-4.9-2.3-6.8c-1.6-1.9-4.3-3.5-8.1-4.9c-2.7-0.9-8.7-2.5-18.1-4.9
	c-12.1-3-20.7-6.7-25.5-11.1c-6.9-6.2-10.3-13.7-10.3-22.6c0-5.7,1.6-11,4.9-16c3.2-5,7.9-8.8,14-11.4s13.4-3.9,22.1-3.9
	c14.1,0,24.7,3.1,31.8,9.3s10.8,14.4,11.2,24.7l-22.6,1c-1-5.8-3-9.9-6.2-12.4s-8-3.8-14.3-3.8c-6.6,0-11.7,1.4-15.5,4.1
	c-2.4,1.7-3.6,4-3.6,7c0,2.7,1.1,4.9,3.4,6.8c2.9,2.4,9.8,4.9,20.8,7.5s19.2,5.3,24.4,8.1c5.3,2.8,9.4,6.6,12.4,11.4
	s4.5,10.8,4.5,17.9C141.6,285.9,139.8,291.9,136.3,297.5L136.3,297.5z M241.7,219h-33.2v93.1h-22.6V219h-33.3v-19h89.1L241.7,219
	L241.7,219z M342.9,298.7c-9.8,10.2-23,15.3-39.5,15.3c-16.7,0-29.9-5.1-39.8-15.3c-9.8-10.2-14.8-24.2-14.8-42
	c0-11.4,1.7-21,5.1-28.8c2.5-5.7,6-10.8,10.4-15.4c4.4-4.5,9.2-7.9,14.5-10.1c7-3,15-4.4,24.2-4.4c16.5,0,29.7,5.1,39.7,15.4
	c9.9,10.2,14.9,24.5,14.9,42.8C357.7,274.3,352.8,288.5,342.9,298.7L342.9,298.7z M457.5,251.9c-2.5,4.7-5.7,8.4-9.5,11
	c-3.8,2.7-7.8,4.5-11.7,5.3c-5.4,1.1-13.2,1.6-23.5,1.6H398v42.3h-22.6V200h36.3c13.8,0,22.7,0.6,26.9,1.7c6.4,1.7,11.8,5.3,16.1,11
	c4.3,5.6,6.5,12.9,6.5,21.8C461.2,241.4,460,247.2,457.5,251.9L457.5,251.9z"/>
<path d="M303.4,217.4c-9.3,0-16.9,3.2-22.6,9.6s-8.6,16-8.6,28.9c0,12.7,2.9,22.3,8.8,28.9s13.3,9.8,22.3,9.8s16.4-3.2,22.2-9.7
	s8.7-16.3,8.7-29.3c0-12.9-2.8-22.4-8.4-28.8C320.2,220.6,312.7,217.4,303.4,217.4L303.4,217.4z"/>
</svg>
