<?xml version="1.0" encoding="utf-8"?>
<!-- Generator: Adobe Illustrator 24.0.3, SVG Export Plug-In . SVG Version: 6.00 Build 0)  -->
<svg version="1.1" id="Layer_1" xmlns="http://www.w3.org/2000/svg" xmlns:xlink="http://www.w3.org/1999/xlink" x="0px" y="0px"
	 viewBox="0 0 512 512" style="enable-background:new 0 0 512 512;" xml:space="preserve">
<title></title>
<path d="M209.5,13.1c-20.7,8.5-37.3,20-49.7,34.4s-20.9,32-25.5,53c-4.6,20.9-6.9,56.7-6.9,107.4v75.3H75.2
	c-20.5,0-33.4,22.2-23.1,40l101.7,176.1c10.3,17.8,35.9,17.8,46.2,0l101.7-176.1c10.3-17.8-2.6-40-23.1-40h-65.8v-87.1
	c0-33.4,1.3-57.3,3.7-71.7c2.5-14.4,9.9-26.5,22.2-36.4s30.5-14.8,54.7-14.8c23.8,0,42.6,5.2,56.3,15.7s22.4,24.3,26.1,41.6
	c2.1,10.7,3.2,34.3,3.2,70.5v210.9c0,9.8,7.9,17.7,17.7,17.7h49.8c9.8,0,17.7-7.9,17.7-17.7V204.4c0-47.2-2.8-82.9-8.3-107.1
	C452.1,81,444.1,65.4,432,50.5s-28.5-27-49.4-36.3c-20.8-9.3-51.4-14-91.7-14C257.3,0.3,230.3,4.6,209.5,13.1L209.5,13.1z"/>
</svg>
