<?xml version="1.0" encoding="utf-8"?>
<!-- Generator: Adobe Illustrator 24.0.3, SVG Export Plug-In . SVG Version: 6.00 Build 0)  -->
<svg version="1.1" id="Layer_1" xmlns="http://www.w3.org/2000/svg" xmlns:xlink="http://www.w3.org/1999/xlink" x="0px" y="0px"
	 viewBox="0 0 512 512" style="enable-background:new 0 0 512 512;" xml:space="preserve">
<title></title>
<path d="M22.9,309.8h216.4c11,0,19.9-8.9,19.9-19.9V84.1c0-11-8.9-19.9-19.9-19.9H22.9C11.9,64.2,3,73.1,3,84.1v205.7
	C3.1,300.9,12,309.8,22.9,309.8z M57.9,184.3L123.8,98c3.3-4.3,11.5-4.3,14.7,0l65.9,86.3c3.3,4.3-0.8,9.6-7.4,9.6h-46.2v78.9
	c0,3.6-3.8,6.4-8.5,6.4H120c-4.7,0-8.5-2.9-8.5-6.4v-78.9H65.2C58.7,193.9,54.6,188.5,57.9,184.3L57.9,184.3z"/>
<path d="M399,369.3c-22.4,0-40.6,18.2-40.6,40.6s18.2,40.6,40.6,40.6s40.6-18.2,40.6-40.6S421.4,369.3,399,369.3z"/>
<path d="M94.8,369.3c-22.4,0-40.6,18.2-40.6,40.6s18.2,40.6,40.6,40.6s40.6-18.2,40.6-40.6C135.5,387.5,117.3,369.3,94.8,369.3z"/>
<path d="M508.4,232L425,113.4c-2.2-3.2-5.2-5.1-8.2-5.7l-0.1-0.2h-1.2c-0.5,0-0.9,0-1.4,0H288.3c-4.5,0-8.2,4.8-8.2,10.6v214h-270
	c-5.7,0-10.3,4.6-10.3,10.3v45c0,5.7,4.6,10.3,10.3,10.3H39c3.6-27.6,27.2-49,55.9-49c28.6,0,52.3,21.3,55.9,49h192.3
	c3.6-27.6,27.2-49,55.9-49s52.3,21.3,55.9,49H503c4.5,0,8.2-4.8,8.2-10.6V250C512.8,244,511.9,237.1,508.4,232L508.4,232z
	 M478.7,240.1H323.2v-111h78.2c2.1,0.9,4.1,2.3,5.6,4.4l69.6,97.1C478.6,233.6,479.3,236.9,478.7,240.1L478.7,240.1z"/>
</svg>
