<?xml version="1.0" encoding="utf-8"?>
<!-- Generator: Adobe Illustrator 24.0.3, SVG Export Plug-In . SVG Version: 6.00 Build 0)  -->
<svg version="1.1" id="Layer_1" xmlns="http://www.w3.org/2000/svg" xmlns:xlink="http://www.w3.org/1999/xlink" x="0px" y="0px"
	 viewBox="0 0 512 512" style="enable-background:new 0 0 512 512;" xml:space="preserve">
<title></title>
<path d="M469,29.2H43C10,29.2-10.7,65,5.8,93.6l213,369c16.5,28.6,57.8,28.6,74.3,0l213-369C522.7,65,502.1,29.2,469,29.2z
	 M144.6,177.3v31.4h-15v-31.5l-27.4-43.3h17.7l17.6,29.6l17.2-29.6h17.4L144.6,177.3L144.6,177.3z M194.2,208.7h-15.1v-74.8h15.1
	V208.7z M265.5,208.7h-56.9v-74.8H264v12.6h-40.3v16.6h37.5v12.6h-37.5V196h41.8V208.7L265.5,208.7z M331.3,208.7h-52.6v-74.2h15.1
	v61.6h37.5V208.7L331.3,208.7z M402.4,187.9c-1.9,5.4-4.5,9.8-8,13.2c-2.6,2.6-6.2,4.5-10.6,6c-3.3,1.1-7.8,1.6-13.4,1.6H342v-74.8
	h27.6c6.2,0,11,0.5,14.2,1.4c4.4,1.3,8.1,3.6,11.3,6.9c3.1,3.3,5.5,7.3,7.1,12.1s2.4,10.7,2.4,17.7
	C404.7,178.1,403.9,183.4,402.4,187.9L402.4,187.9z"/>
<path d="M383.3,150.8c-1.8-1.7-4.2-2.9-7-3.5c-2.1-0.5-6.2-0.7-12.4-0.7h-6.8v49.5h11.3c4.2,0,7.3-0.2,9.1-0.7
	c2.4-0.6,4.5-1.7,6.1-3.1c1.6-1.5,2.9-3.9,4-7.2c1-3.3,1.5-7.9,1.5-13.7s-0.5-10.2-1.5-13.3C386.5,154.9,385.1,152.5,383.3,150.8
	L383.3,150.8z"/>
</svg>
